# xmcd
#
# Track frame offsets:
#	150
#	18384
#	32127
#	43213
#	59567
#	80129
#	95602
#	114229
#	129861
#	147932
#	171975
#	191561
#	211362
#	230948
#	250564
#	266692
#
# Disc length: 3792 seconds
#
# Revision: 0
# Processed by: cddbd v1.5.1PL0 Copyright (c) Steve Scherf et al.
# Submitted via: dBpowerAMP V4.0
#
DISCID=ea0ece10
DTITLE=Mixed - Best of Love Songs
DYEAR=1900
DGENRE=Blues
TTITLE0=Hot Chocolat - It started with a kiss
TTITLE1=Brotherhood of Man - Save your kisses for me
TTITLE2=John Kincade - Till I kissed you
TTITLE3=Leo Sayer - More than I can say
TTITLE4=Masquerade - Guardian Angel
TTITLE5=Chris Rea - I can hear your heartbeat
TTITLE6=The Rembrandts - Just the way it is
TTITLE7=Mink Deville - Each word's beats of my heart
TTITLE8=Donna Lewis - I love you always forever
TTITLE9=Laura Branigan - Power of love
TTITLE10=All-4-One - I swear
TTITLE11=Christopher Cross_ Ride like the wind
TTITLE12=Peter Cetera - Glory of love
TTITLE13=Scorpions - You and I
TTITLE14=Linda Ronstadt feat. Aaron Neville - Don't know much
TTITLE15=The Cars - Drive
EXTD=Best of Love Songs CD2
EXTT0=
EXTT1=
EXTT2=
EXTT3=
EXTT4=
EXTT5=
EXTT6=
EXTT7=
EXTT8=
EXTT9=
EXTT10=
EXTT11=
EXTT12=
EXTT13=
EXTT14=
EXTT15=
PLAYORDER=
